<svg xmlns="http://www.w3.org/2000/svg" width="20.778" height="24.242" viewBox="0 0 20.778 24.242">
  <g id="file-person" transform="translate(-4.5 -2.25)">
    <path id="패스_9034" data-name="패스 9034" d="M7.963,2.25H21.816a3.463,3.463,0,0,1,3.463,3.463V23.029a3.463,3.463,0,0,1-3.463,3.463H7.963A3.463,3.463,0,0,1,4.5,23.029V5.713A3.463,3.463,0,0,1,7.963,2.25Zm0,1.732A1.732,1.732,0,0,0,6.232,5.713V23.029A1.732,1.732,0,0,0,7.963,24.76H21.816a1.732,1.732,0,0,0,1.732-1.732V5.713a1.732,1.732,0,0,0-1.732-1.732Z" fill="#fecc2f" fill-rule="evenodd"/>
    <path id="패스_9035" data-name="패스 9035" d="M25.017,29.945c-.86-2.2-3.442-5.195-10.015-5.195s-9.155,3-10.015,5.195Z" transform="translate(-0.112 -5.184)" fill="#fecc2f"/>
    <path id="패스_9036" data-name="패스 9036" d="M16.445,19.389a5.195,5.195,0,1,0-5.195-5.195A5.195,5.195,0,0,0,16.445,19.389Z" transform="translate(-1.555 -1.555)" fill="#fecc2f" fill-rule="evenodd"/>
  </g>
</svg>
