<svg id="ios-megaphone" xmlns="http://www.w3.org/2000/svg" width="23.803" height="23.791" viewBox="0 0 23.803 23.791">
  <path id="패스_8857" data-name="패스 8857" d="M5.781,12.034A5.253,5.253,0,0,1,8.269,7.521a.185.185,0,0,0-.1-.343A4.416,4.416,0,0,0,3.934,11.17a.812.812,0,0,0-.566.852.78.78,0,0,0,.617.847,5.047,5.047,0,0,0,3.5,3.689.249.249,0,0,0,.217-.429A5.7,5.7,0,0,1,5.78,12.035Z" transform="translate(-3.368 -4.085)" fill="#fff"/>
  <path id="패스_8858" data-name="패스 8858" d="M27.276,6.509c-.057-.155-.12-.3-.183-.44a5.86,5.86,0,0,0-1.241-1.841,2.823,2.823,0,0,0-1.99-.852,2.62,2.62,0,0,0-1.475.446,20.4,20.4,0,0,1-8.807,2.63c-2.385,0-2.253.011-2.253.011a5.363,5.363,0,0,0-.595,9.437c.692.577,1.349.5,1.207,1.27s-1.287,5.576-1.43,6.577-.166,1.573.229,2.059a8.434,8.434,0,0,0,3.889,1.361c1.058,0,.789-.5.789-2.505s-.532-7.532.944-7.532c2.762,0,4.2.989,6.366,1.813a3.063,3.063,0,0,0,1.149.268,2.822,2.822,0,0,0,1.985-1.041A5.929,5.929,0,0,0,27.1,16.327c.063-.149.126-.3.189-.458a13.35,13.35,0,0,0,.783-4.684,13.383,13.383,0,0,0-.795-4.679Zm-1.521,8.979c-.366.9-1.007,1.613-1.538,1.613s-1.018-.715-1.384-1.613a11.8,11.8,0,0,1-.7-4.272,11.823,11.823,0,0,1,.7-4.283c.366-.892.852-1.43,1.379-1.43s1.161.543,1.532,1.43a11.521,11.521,0,0,1,.012,8.555Z" transform="translate(-4.268 -3.375)" fill="#fff"/>
</svg>
