<svg xmlns="http://www.w3.org/2000/svg" width="26.853" height="24.941" viewBox="0 0 26.853 24.941">
  <g id="그룹_2967" data-name="그룹 2967" transform="translate(-372.5 -866.451)">
    <path id="패스_8807" data-name="패스 8807" d="M24.882,4.5H6.721A3.355,3.355,0,0,0,3.375,7.846v11.47a3.355,3.355,0,0,0,3.346,3.346h2.39v4.779l5.6-4.668a.478.478,0,0,1,.307-.111h9.865a3.355,3.355,0,0,0,3.346-3.346V7.846A3.355,3.355,0,0,0,24.882,4.5Z" transform="translate(370.125 862.951)" fill="none" stroke="#fecc2f" stroke-linejoin="round" stroke-width="2"/>
    <g id="그룹_2966" data-name="그룹 2966" transform="translate(0.221)">
      <path id="패스_8808" data-name="패스 8808" d="M12.823,14.85a1.912,1.912,0,1,1-1.912-1.912A1.912,1.912,0,0,1,12.823,14.85Z" transform="translate(368.779 861.683)" fill="#fecc2f"/>
      <path id="패스_8809" data-name="패스 8809" d="M19.573,14.85a1.912,1.912,0,1,1-1.912-1.912A1.912,1.912,0,0,1,19.573,14.85Z" transform="translate(367.765 861.683)" fill="#fecc2f"/>
      <path id="패스_8810" data-name="패스 8810" d="M26.323,14.85a1.912,1.912,0,1,1-1.912-1.912A1.912,1.912,0,0,1,26.323,14.85Z" transform="translate(366.749 861.683)" fill="#fecc2f"/>
    </g>
  </g>
</svg>
