<svg xmlns="http://www.w3.org/2000/svg" width="34.175" height="37.021" viewBox="0 0 34.175 37.021">
  <path id="thumbs-o-up" d="M5.7,29.9a1.369,1.369,0,0,0-.423-1,1.4,1.4,0,0,0-2,0,1.4,1.4,0,0,0,0,2,1.4,1.4,0,0,0,2,0A1.369,1.369,0,0,0,5.7,29.9ZM31.326,17.087a2.714,2.714,0,0,0-.868-1.991,2.743,2.743,0,0,0-1.98-.857H20.647a9.079,9.079,0,0,1,1.067-3.549A9.092,9.092,0,0,0,22.782,7.12a5.811,5.811,0,0,0-.712-3.226q-.712-1.046-2.848-1.046a3.683,3.683,0,0,0-.845,1.891q-.266,1.312-.679,2.792a5.663,5.663,0,0,1-1.324,2.436q-.49.512-1.713,2.025-.089.111-.512.667t-.7.912q-.278.356-.767.945a12.805,12.805,0,0,1-.89.979q-.4.39-.857.79a3.792,3.792,0,0,1-.89.6,1.9,1.9,0,0,1-.79.2H8.545V31.326h.712a4.476,4.476,0,0,1,.7.067q.411.067.734.145t.845.245q.522.167.778.256l.79.278q.534.188.645.233a24.593,24.593,0,0,0,7.609,1.624h2.692q4.272,0,4.272-3.716a7.619,7.619,0,0,0-.111-1.246,2.482,2.482,0,0,0,1.057-1.168,3.749,3.749,0,0,0,.39-1.635,3.086,3.086,0,0,0-.4-1.535,3.518,3.518,0,0,0,1.18-2.648,4.006,4.006,0,0,0-.222-1.235,2.992,2.992,0,0,0-.556-1.057q.712-.023,1.19-1.046a4.361,4.361,0,0,0,.478-1.8Zm2.848-.023a6.431,6.431,0,0,1-1.09,3.626,5.8,5.8,0,0,1,.2,1.535,6.387,6.387,0,0,1-.845,3.2,6.741,6.741,0,0,1,.067.956,6.263,6.263,0,0,1-1.335,3.96,6.3,6.3,0,0,1-1.891,4.884,7.092,7.092,0,0,1-5.05,1.791h-2.87a17.953,17.953,0,0,1-4.216-.5q-2.08-.5-4.816-1.456a16.468,16.468,0,0,0-3.071-.89H2.848a2.744,2.744,0,0,1-2.014-.834A2.744,2.744,0,0,1,0,31.327V17.087a2.744,2.744,0,0,1,.834-2.014,2.744,2.744,0,0,1,2.014-.834h6.1a19.632,19.632,0,0,0,3.048-3.448q1.291-1.669,2.381-2.848a3.78,3.78,0,0,0,.79-1.9q.256-1.346.679-2.815a5.354,5.354,0,0,1,1.379-2.4,2.825,2.825,0,0,1,2-.823,7.6,7.6,0,0,1,3.36.723,4.887,4.887,0,0,1,2.27,2.258,9.228,9.228,0,0,1,.778,4.138,9.77,9.77,0,0,1-1.067,4.272h3.916a5.775,5.775,0,0,1,5.7,5.674Z" fill="#2c2c2c"/>
</svg>
